<svg id="Слой_1" data-name="Слой 1" xmlns="http://www.w3.org/2000/svg" viewBox="0 0 48 54"><defs><style>.cls-2{fill:#ff8219}</style></defs><rect x="1" y="1" width="46" height="52" rx="4" ry="4" fill="none" stroke="#ff8219" stroke-width="2"/><path class="cls-2" d="M-138.71 38.53a1 1 0 001.42 0l6.36-6.37a1 1 0 000-1.41 1 1 0 00-1.41 0L-138 36.4l-5.66-5.65a1 1 0 00-1.41 0 1 1 0 000 1.41zM-139-4.18v42h2v-42z" transform="translate(161 9.18)"/><path class="cls-2" d="M-137.29-4.89a1 1 0 00-1.42 0l-6.36 6.36a1 1 0 000 1.42 1 1 0 001.41 0l5.66-5.66 5.66 5.66a1 1 0 001.41 0 1 1 0 000-1.42zm.29 42.71v-42h-2v42z" transform="translate(161 9.18)"/></svg>