<svg version="1.1" id="Слой_1" xmlns="http://www.w3.org/2000/svg" x="0" y="0" viewBox="0 0 42 58" xml:space="preserve"><style>.st0{fill:none;stroke:#ff8219;stroke-width:2}</style><path class="st0" d="M29.9 16.8c-7 1.1-11.2 1.3-18.9 0-.3-1.4-.3-3.1.7-4.6C12.9 10.6 15.5 9 21 9c5.5 0 7.9 1.6 8.8 3.1.8 1.5.7 3.3.1 4.7z"/><path d="M12.8 23.7c2.5-.9 9.4-2.1 16.4 0l.6-1.9c-7.5-2.3-14.8-.9-17.6 0l.6 1.9z" fill="#ff8219"/><path class="st0" d="M4.9 25.1l.3-.3-.1-.4-.7-4v-.2l-.1-.2c-2-3.1-3.3-7.6-1.5-11.4C4.5 4.9 9.4 1.5 21 1 32.7.6 37.5 3.8 39.2 7.6c1.8 3.9.4 8.9-1.5 12.4l-.1.1v.2l-.7 4-.1.4.3.3c2.4 3.4 3.9 7.5 3.9 12 0 11.1-9 20-20 20S1 48 1 37c0-4.5 1.5-8.6 3.9-11.9z"/></svg>