<svg width="588" height="498" fill="none" xmlns="http://www.w3.org/2000/svg"><rect x="103.514" y="1.164" width="483.684" height="286.357" rx="15.5" fill="#7D7B7E" stroke="url(#paint0_linear_7_4687)"/><circle cx="521.716" cy="239.305" r="33.916" fill="#FFAB02"/><circle cx="477.318" cy="239.305" r="33.916" fill="#FF0517" fill-opacity=".65"/><path d="M530.966 125.226H149.879v28.366h381.087v-28.366zm-147.995 39.466h-96.197v28.365h96.197v-28.365zm-59.198 73.997H156.045v28.366h167.728v-28.366zM223.276 51.228h-59.231a8 8 0 00-8 8v35.799a8 8 0 008 8h59.231a8 8 0 008-8V59.228a8 8 0 00-8-8z" fill="#626263"/><path d="M231.276 74.044h-21.049a3 3 0 00-3 3v11.492m0 14.491V88.535m0 0h24.049m-54.881-37.307v15.416m0 36.383v-16.65m0-19.733h-19.733m19.733 0v19.733m0 0h-19.733m27.749-28.982h14.8" stroke="#505050"/><path d="M171.938 343.964c-11.501.622-35.617-5.18-46.238-8.159 13.367-13.366 30.437-37.949 37.301-48.569h67.219c4.534 4.145 17.097 14.376 31.085 22.147 17.484 9.714 33.803 18.262 20.981 43.13-10.257 19.893-46.496 13.987-63.333 8.548-12.175-5.699-38.622-17.097-47.015-17.097zM53.43 240.221c4.974 2.487 16.578 4.404 21.759 5.052 3.108-5.285 19.945-17.485 27.975-22.925v-45.46c-5.957 0-19.272-1.088-24.867-5.44-28.286-14.609-65.147-10.491-80.041-6.605v107.24c18.65-2.176 39.373-22.148 47.403-31.862h7.771z" fill="#EED1B8"/><path d="M53.43 240.221c4.974 2.487 16.578 4.404 21.759 5.052 3.108-5.285 19.945-17.485 27.975-22.925v-45.46c-5.957 0-19.272-1.088-24.867-5.44-28.286-14.609-65.147-10.491-80.041-6.605v107.24c18.65-2.176 39.373-22.148 47.403-31.862h7.771zm0 0c-6.217-3.108-16.32-54.785-22.536-63.333M125.7 335.805c10.621 2.979 34.737 8.781 46.238 8.159 8.393 0 34.84 11.398 47.015 17.097 16.837 5.439 53.076 11.345 63.333-8.548 12.822-24.868-3.497-33.416-20.981-43.13-13.988-7.771-26.551-18.002-31.085-22.147h-67.219c-6.864 10.62-23.934 35.203-37.301 48.569z" stroke="#FF8219" stroke-linecap="round" stroke-linejoin="round"/><path d="M-1.356 328.034l-.777-55.952c18.961-1.865 39.762-21.758 47.792-31.472 1.295-.389 4.585-.933 7.382 0 2.786.928 15.045 3.731 20.904 5.034.038-.008.064-.002.078.017l-.078-.017c-2.381.482-50.944 54.845-75.3 82.39z" fill="#EED1B8" stroke="#FF8219" stroke-linecap="round" stroke-linejoin="round"/><path d="M142.019 207.194C85.679 213.022 20.403 307.829-1.356 328.422L-27 454.701-6.795 497c28.3-21.076 50.967-60.61 87.812-116.512 9.014-13.677 34.063-36.265 45.46-45.849 16.449-19.298 50.123-61.158 53.232-74.213 10.879-37.301-14.377-57.117-37.69-53.232z" fill="#EED1B8" stroke="#FF8219" stroke-linecap="round" stroke-linejoin="round"/><path d="M53.43 288.013c12.304 8.03 38.078 27.043 42.74 38.855m-13.599-50.9c7.253 4.663 22.225 16.785 24.09 27.976m-28.364-14.765c3.626 1.942 11.579 7.615 14.376 14.765m39.633-88.59c-13.081 10.361-32.405 34.503-5.051 48.18 3.885 2.85 13.055 10.569 18.65 18.651 1.865 3.73 12.434-6.606 20.205-13.6" stroke="#FF8219" stroke-linecap="round" stroke-linejoin="round"/><defs><linearGradient id="paint0_linear_7_4687" x1="90.681" y1="-8.586" x2="572.282" y2="299.737" gradientUnits="userSpaceOnUse"><stop stop-color="#FF8219"/><stop offset="1" stop-color="#FF8219" stop-opacity="0"/></linearGradient></defs></svg>