<svg xmlns="http://www.w3.org/2000/svg" viewBox="0 0 202.92 69.19"><defs><style>.cls-1,.cls-2{fill:none;stroke:#282c34;stroke-miterlimit:10;stroke-width:2px}.cls-2{fill:#ff153c}</style></defs><g id="Слой_2" data-name="Слой 2"><circle class="cls-1" cx="41" cy="35.99" r="19.1"/><path class="cls-1" d="M-1688.15-774.51c.05 4.26 1.11 7.23 3.2 8 4.58 1.72 12.36-7.67 17.39-21s5.39-25.51.81-27.24c-2.61-1-6.27 1.66-9.87 6.59" transform="translate(1716.85 825.06)"/><path class="cls-1" d="M-1694.54-792.54c-3.07-6.86-3.51-12.69-.62-14.9 4.38-3.36 14.76 2.85 23.2 13.85s11.72 22.65 7.34 26c-2.43 1.86-6.71.78-11.48-2.43" transform="translate(1716.85 825.06)"/><path class="cls-1" d="M-1660-799.67c3.57.21 6.13 1.31 7 3.33 2.16 4.92-6.37 13.43-19.06 19s-24.74 6.12-26.91 1.2c-1.09-2.49.56-5.91 4.11-9.4" transform="translate(1716.85 825.06)"/><path class="cls-1" d="M-1692.41-779.79c-6-2.5-9.71-5.83-9.33-9.05.64-5.33 12.32-8.32 26.09-6.67s24.41 7.31 23.77 12.65c-.35 2.94-4 5.16-9.59 6.3" transform="translate(1716.85 825.06)"/><path class="cls-1" d="M54.17 22.16L64.23 7.89M32.79 18.74l-4.09-8.61m26.16 38.99l12.83 9.65m-30.73-4.12l-.88 7.57M22.95 29.76L6.91 20.41m17 24.09l-10.29 9.44"/><circle class="cls-2" cx="66.11" cy="4.84" r="3.84"/><circle class="cls-2" cx="4.42" cy="18.74" r="3.42"/><circle class="cls-2" cx="10.12" cy="57.25" r="4.9"/><circle class="cls-2" cx="35.96" cy="65.02" r="3.17"/><circle class="cls-2" cx="70.87" cy="61.14" r="3.89"/><circle class="cls-2" cx="27.57" cy="7.48" r="2.65"/><path d="M-1638.87-801.7v5.91h3.06v6.12h-3.06a3.65 3.65 0 00.68 2.54 3.46 3.46 0 002.5.7v6.09h-.78a10.5 10.5 0 01-4.35-.91 8.55 8.55 0 01-3.28-2.48 8.32 8.32 0 01-1.57-5.3v-12.67zm24.22 14.36H-1625a3.7 3.7 0 01-.24-1.23 3.75 3.75 0 01.33-1.52h3.45a2 2 0 00-2.27-1.71 2.59 2.59 0 00-2.07.92 3.48 3.48 0 00-.8 2.36 3.7 3.7 0 00.77 2.43 2.52 2.52 0 002 .93 2.88 2.88 0 002-.87l3.87 4a10.55 10.55 0 01-6 1.81 10.17 10.17 0 01-6.78-2.31 7.18 7.18 0 01-2.75-5.71 7.25 7.25 0 012.77-5.73 10.21 10.21 0 016.81-2.34 9.89 9.89 0 016.63 2.28 7.13 7.13 0 012.68 5.63c.02.2-.01.56-.05 1.06zm9.65-14.36v21.14h-6.8v-21.14zm21.76 14.36h-10.31a3.7 3.7 0 01-.24-1.23 3.75 3.75 0 01.33-1.52h3.45a2 2 0 00-2.27-1.71 2.59 2.59 0 00-2.07.92 3.48 3.48 0 00-.8 2.36 3.7 3.7 0 00.77 2.43 2.52 2.52 0 002 .93 2.88 2.88 0 002-.87l3.87 4a10.55 10.55 0 01-6 1.81 10.17 10.17 0 01-6.78-2.31 7.18 7.18 0 01-2.75-5.71 7.25 7.25 0 012.77-5.73 10.21 10.21 0 016.81-2.34 9.89 9.89 0 016.63 2.28 7.1 7.1 0 012.68 5.63c-.02.2-.05.56-.09 1.06zm13.94-.33l6.74-.22a7.7 7.7 0 01-2.92 5.5 9.81 9.81 0 01-6.42 2.16 10 10 0 01-6.75-2.37 7.38 7.38 0 01-2.76-5.81 7.05 7.05 0 012.78-5.59 10.08 10.08 0 016.67-2.33 10.15 10.15 0 016 1.83 7.63 7.63 0 013.24 4.66l-6.89.22a2.9 2.9 0 00-2.25-1 2.75 2.75 0 00-1.91.65 2.07 2.07 0 00-.75 1.64 2.18 2.18 0 00.79 1.69 3 3 0 002 .68 2.51 2.51 0 002.43-1.71zm18.3-8.66a9.83 9.83 0 016.61 2.36 7.24 7.24 0 012.76 5.67 7.21 7.21 0 01-2.79 5.7 10.12 10.12 0 01-6.74 2.35 10.11 10.11 0 01-6.74-2.36 7.2 7.2 0 01-2.8-5.69 7.11 7.11 0 012.8-5.71 10.43 10.43 0 016.9-2.32zm-.18 5.72a2.68 2.68 0 00-1.85.67 2.12 2.12 0 00-.77 1.65 2.1 2.1 0 00.78 1.64 2.66 2.66 0 001.84.69 2.72 2.72 0 001.87-.69 2.12 2.12 0 00.77-1.64 2.12 2.12 0 00-.77-1.65 2.7 2.7 0 00-1.87-.67zm37.25 10.05h-6.8v-8.33a2.6 2.6 0 00-.24-1.33.92.92 0 00-.85-.38c-.76 0-1.15.58-1.15 1.72v8.32h-6.79v-8.33a2.58 2.58 0 00-.25-1.33 1 1 0 00-.86-.38c-.75 0-1.13.58-1.13 1.72v8.32h-6.8v-9.51a5.7 5.7 0 012.06-4.42 7.18 7.18 0 015-1.82 7.84 7.84 0 015.41 2.17 8.48 8.48 0 015.35-2.17 7.29 7.29 0 015.45 2.1 6.55 6.55 0 011.62 4.79z" transform="translate(1716.85 825.06)" fill="#282c34"/></g></svg>