<svg viewBox="0 0 75.76 69.19" xmlns="http://www.w3.org/2000/svg" xmlns:xlink="http://www.w3.org/1999/xlink">
	<style>
		:root&gt;svg{display:none}:root&gt;svg:target{display:block}
	</style>
	<svg fill="none" viewBox="0 0 20 20" id="basket" xmlns="http://www.w3.org/2000/svg">
		<path d="M7.545 18.182a.818.818 0 100-1.637.818.818 0 000 1.637zm9.001 0a.818.818 0 100-1.637.818.818 0 000 1.637zM1 1h3.273l2.192 10.956a1.636 1.636 0 001.637 1.317h7.953a1.636 1.636 0 001.636-1.317L19 5.09H5.09" stroke="#9B9B9B" stroke-width="2" stroke-linecap="round" stroke-linejoin="round" />
	</svg>
	<svg data-name="Слой 1" viewBox="0 0 31 45.48" id="location" xmlns="http://www.w3.org/2000/svg">
		<path d="M24.92 3.77A15 15 0 00.74 18.22c.86 4.83 3.94 11.3 14.54 26.64a.27.27 0 00.44 0C26 30 29.18 23.76 30.19 18.69a15.18 15.18 0 00-5.27-14.92zm-9.42 22.7a10.82 10.82 0 1110.82-10.82A10.81 10.81 0 0115.5 26.47z" fill="none" stroke="#000" stroke-miterlimit="10" />
	</svg>
	<svg viewBox="0 0 30.45 30.62" id="output" xmlns="http://www.w3.org/2000/svg">
		<g data-name="Слой 2" stroke="#f90808" stroke-linejoin="round">
			<path d="M11.95 19.14L24.19 6.6m4.76 8.48v14.04H1.5V1.67h13.73" fill="none" stroke-linecap="round" stroke-width="3" />
			<path fill="red" d="M29.93.5l-.23 10.46L18.84.75 29.93.5z" />
		</g>
	</svg>
	<svg xmlns="http://www.w3.org/2000/svg" viewBox="0 0 75.76 69.19">
		<symbol id="telecom-logo" fill="none" stroke="#443d3d" stroke-miterlimit="10" stroke-width="2">
			<defs>
		<style>
			.cls-1{fill:none;}.cls-1,.cls-2{stroke:#1b151c;stroke-miterlimit:10;stroke-width:2px;}.cls-2{fill:#ff153c;}.cls-3{fill:#1b151c;}
		</style>
	</defs>
	<g id="Слой_2" data-name="Слой 2">
		<circle class="cls-1" cx="41" cy="35.99" r="19.1" />
		<path class="cls-1" d="M-1688.15-774.51c.05,4.26,1.11,7.23,3.2,8,4.58,1.72,12.36-7.67,17.39-21s5.39-25.51.81-27.24c-2.61-1-6.27,1.66-9.87,6.59" transform="translate(1716.85 825.06)" />
		<path class="cls-1" d="M-1694.54-792.54c-3.07-6.86-3.51-12.69-.62-14.9,4.38-3.36,14.76,2.85,23.2,13.85s11.72,22.65,7.34,26c-2.43,1.86-6.71.78-11.48-2.43" transform="translate(1716.85 825.06)" />
		<path class="cls-1" d="M-1660-799.67c3.57.21,6.13,1.31,7,3.33,2.16,4.92-6.37,13.43-19.06,19s-24.74,6.12-26.91,1.2c-1.09-2.49.56-5.91,4.11-9.4" transform="translate(1716.85 825.06)" />
		<path class="cls-1" d="M-1692.41-779.79c-6-2.5-9.71-5.83-9.33-9.05.64-5.33,12.32-8.32,26.09-6.67s24.41,7.31,23.77,12.65c-.35,2.94-4,5.16-9.59,6.3" transform="translate(1716.85 825.06)" />
		<line class="cls-1" x1="54.17" y1="22.16" x2="64.23" y2="7.89" />
		<line class="cls-1" x1="32.79" y1="18.74" x2="28.7" y2="10.13" />
		<line class="cls-1" x1="54.86" y1="49.12" x2="67.69" y2="58.77" />
		<line class="cls-1" x1="36.96" y1="54.65" x2="36.08" y2="62.22" />
		<line class="cls-1" x1="22.95" y1="29.76" x2="6.91" y2="20.41" />
		<line class="cls-1" x1="23.91" y1="44.5" x2="13.62" y2="53.94" />
		<circle class="cls-2" cx="66.11" cy="4.84" r="3.84" stroke-width="1px" fill="#ff153c"/>
		<circle class="cls-2" cx="4.42" cy="18.74" r="3.42" stroke-width="1px" fill="#ff153c"/>
		<circle class="cls-2" cx="10.12" cy="57.25" r="4.9" stroke-width="1px" fill="#ff153c"/>
		<circle class="cls-2" cx="35.96" cy="65.02" r="3.17" stroke-width="1px" fill="#ff153c"/>
		<circle class="cls-2" cx="70.87" cy="61.14" r="3.89" stroke-width="1px" fill="#ff153c"/>
		<circle class="cls-2" cx="27.57" cy="7.48" r="2.65" stroke-width="1px" fill="#ff153c"/>
		<path class="cls-3" d="M-1638.87-801.7v5.91h3.06v6.12h-3.06a3.65,3.65,0,0,0,.68,2.54,3.46,3.46,0,0,0,2.5.7v6.09h-.78a10.5,10.5,0,0,1-4.35-.91,8.55,8.55,0,0,1-3.28-2.48,8.32,8.32,0,0,1-1.57-5.3V-801.7Z" transform="translate(1716.85 825.06)" stroke="none" fill="#443d3d"/>
		<path class="cls-3" d="M-1614.65-787.34H-1625a3.7,3.7,0,0,1-.24-1.23,3.75,3.75,0,0,1,.33-1.52h3.45a2,2,0,0,0-2.27-1.71,2.59,2.59,0,0,0-2.07.92,3.48,3.48,0,0,0-.8,2.36,3.7,3.7,0,0,0,.77,2.43,2.52,2.52,0,0,0,2,.93,2.88,2.88,0,0,0,2-.87l3.87,4a10.55,10.55,0,0,1-6,1.81,10.17,10.17,0,0,1-6.78-2.31,7.18,7.18,0,0,1-2.75-5.71,7.25,7.25,0,0,1,2.77-5.73,10.21,10.21,0,0,1,6.81-2.34,9.89,9.89,0,0,1,6.63,2.28,7.13,7.13,0,0,1,2.68,5.63C-1614.58-788.2-1614.61-787.84-1614.65-787.34Z" transform="translate(1716.85 825.06)" stroke="none" fill="#443d3d"/>
		<path class="cls-3" d="M-1605-801.7v21.14h-6.8V-801.7Z" transform="translate(1716.85 825.06)" stroke="none" fill="#443d3d"/>
		<path class="cls-3" d="M-1583.24-787.34h-10.31a3.7,3.7,0,0,1-.24-1.23,3.75,3.75,0,0,1,.33-1.52h3.45a2,2,0,0,0-2.27-1.71,2.59,2.59,0,0,0-2.07.92,3.48,3.48,0,0,0-.8,2.36,3.7,3.7,0,0,0,.77,2.43,2.52,2.52,0,0,0,2,.93,2.88,2.88,0,0,0,2-.87l3.87,4a10.55,10.55,0,0,1-6,1.81,10.17,10.17,0,0,1-6.78-2.31,7.18,7.18,0,0,1-2.75-5.71,7.25,7.25,0,0,1,2.77-5.73,10.21,10.21,0,0,1,6.81-2.34,9.89,9.89,0,0,1,6.63,2.28,7.1,7.1,0,0,1,2.68,5.63C-1583.17-788.2-1583.2-787.84-1583.24-787.34Z" transform="translate(1716.85 825.06)" stroke="none" fill="#443d3d"/>
		<path class="cls-3" d="M-1569.3-787.67l6.74-.22a7.7,7.7,0,0,1-2.92,5.5,9.81,9.81,0,0,1-6.42,2.16,10,10,0,0,1-6.75-2.37,7.38,7.38,0,0,1-2.76-5.81,7.05,7.05,0,0,1,2.78-5.59,10.08,10.08,0,0,1,6.67-2.33,10.15,10.15,0,0,1,6,1.83,7.63,7.63,0,0,1,3.24,4.66l-6.89.22a2.9,2.9,0,0,0-2.25-1,2.75,2.75,0,0,0-1.91.65,2.07,2.07,0,0,0-.75,1.64,2.18,2.18,0,0,0,.79,1.69,3,3,0,0,0,2,.68A2.51,2.51,0,0,0-1569.3-787.67Z" transform="translate(1716.85 825.06)" stroke="none" fill="#443d3d"/>
		<path class="cls-3" d="M-1551-796.33a9.83,9.83,0,0,1,6.61,2.36,7.24,7.24,0,0,1,2.76,5.67,7.21,7.21,0,0,1-2.79,5.7,10.12,10.12,0,0,1-6.74,2.35,10.11,10.11,0,0,1-6.74-2.36,7.2,7.2,0,0,1-2.8-5.69,7.11,7.11,0,0,1,2.8-5.71A10.43,10.43,0,0,1-1551-796.33Zm-.18,5.72a2.68,2.68,0,0,0-1.85.67,2.12,2.12,0,0,0-.77,1.65,2.1,2.1,0,0,0,.78,1.64,2.66,2.66,0,0,0,1.84.69,2.72,2.72,0,0,0,1.87-.69,2.12,2.12,0,0,0,.77-1.64,2.12,2.12,0,0,0-.77-1.65A2.7,2.7,0,0,0-1551.18-790.61Z" transform="translate(1716.85 825.06)" stroke="none" fill="#443d3d"/>
		<path class="cls-3" d="M-1513.93-780.56h-6.8v-8.33a2.6,2.6,0,0,0-.24-1.33.92.92,0,0,0-.85-.38c-.76,0-1.15.58-1.15,1.72v8.32h-6.79v-8.33a2.58,2.58,0,0,0-.25-1.33,1,1,0,0,0-.86-.38c-.75,0-1.13.58-1.13,1.72v8.32h-6.8v-9.51a5.7,5.7,0,0,1,2.06-4.42,7.18,7.18,0,0,1,5-1.82,7.84,7.84,0,0,1,5.41,2.17,8.48,8.48,0,0,1,5.35-2.17,7.29,7.29,0,0,1,5.45,2.1,6.55,6.55,0,0,1,1.62,4.79Z" transform="translate(1716.85 825.06)" stroke="none" fill="#443d3d"/>
	</g>
			</g>
		</symbol>
	</svg>
</svg>
